<svg xmlns="http://www.w3.org/2000/svg" xmlns:xlink="http://www.w3.org/1999/xlink" width="500" zoomAndPan="magnify" viewBox="0 0 375 374.999991" height="500" preserveAspectRatio="xMidYMid meet" version="1.2"><defs><clipPath id="c492f71822"><path d="M 106.429688 37.5 L 268.429688 37.5 L 268.429688 375 L 106.429688 375 Z M 106.429688 37.5 "/></clipPath><clipPath id="38085ff14f"><path d="M 116.101562 66 L 252 66 L 252 96 L 116.101562 96 Z M 116.101562 66 "/></clipPath></defs><g id="db69f6b3fb"><g clip-rule="nonzero" clip-path="url(#c492f71822)"><path style=" stroke:none;fill-rule:nonzero;fill:#b076ce;fill-opacity:1;" d="M 181.96875 37.496094 C 196.449219 37.679688 207.589844 43.605469 218.421875 52.625 C 235.28125 66.671875 246.726562 87.230469 248.707031 109.167969 C 251.144531 136.125 236.019531 164.15625 220.238281 184.917969 C 217.769531 188.160156 215.203125 191.394531 212.519531 194.464844 C 210.722656 196.519531 208.792969 198.460938 207.039062 200.558594 C 206.726562 205.433594 205.582031 212.84375 207.789062 217.28125 C 208.84375 219.394531 211.230469 220.71875 213.320312 221.617188 C 217.707031 223.503906 222.492188 224.273438 227.058594 225.621094 C 235.414062 228.089844 249.902344 234.421875 255.355469 241.117188 C 260.820312 247.832031 263.199219 257.625 264.488281 266.015625 C 265.992188 275.835938 265.316406 283.796875 265.164062 293.511719 C 265.105469 297.28125 265.285156 301.0625 265.425781 304.828125 L 267.394531 353.132812 C 267.542969 356.878906 267.71875 360.628906 267.929688 364.375 C 268.066406 366.832031 268.410156 369.410156 268.148438 371.867188 C 268.066406 372.617188 267.976562 373.515625 267.355469 374.019531 C 266.902344 373.976562 266.808594 373.945312 266.460938 373.613281 C 265.703125 372.878906 265.621094 371.503906 265.519531 370.507812 C 265.164062 367.085938 265.234375 363.589844 265.105469 360.152344 L 264.328125 340.472656 C 263.714844 325.207031 262.679688 309.898438 262.464844 294.625 C 262.398438 289.859375 263 285.089844 262.953125 280.320312 C 262.84375 268.808594 260.800781 250.914062 252.882812 242.105469 C 246.898438 235.453125 231.222656 229.351562 222.539062 227.082031 C 217.347656 225.722656 211.023438 224.820312 207.097656 220.839844 C 202.535156 216.214844 204.175781 208.277344 204.207031 202.421875 C 203.328125 202.785156 202.402344 203.207031 201.472656 203.417969 C 192.535156 205.453125 181.027344 197.109375 173.707031 192.667969 C 175.6875 197.863281 177.050781 203.253906 176.984375 208.847656 C 176.933594 212.976562 176.191406 217.167969 173.671875 220.550781 C 165.445312 231.582031 137.367188 234.148438 124.929688 246.390625 C 111.179688 259.929688 110.824219 283.761719 110.117188 301.800781 C 109.691406 310.863281 109.449219 319.933594 109.394531 329.011719 C 109.363281 338.898438 109.902344 358.308594 117.246094 365.570312 C 119.304688 367.605469 121.734375 368.417969 124.597656 368.398438 C 129.136719 368.359375 133.222656 366.273438 136.101562 362.800781 C 141.203125 356.652344 144.976562 341.792969 147.617188 333.792969 C 149.207031 328.875 151.039062 324.042969 153.117188 319.308594 C 157.335938 309.894531 161.953125 303.410156 169.320312 296.191406 C 170.628906 294.910156 172.699219 295.382812 174.367188 295.011719 C 177.984375 294.214844 181.546875 293.242188 185.191406 292.554688 C 193.753906 290.933594 203.253906 290.035156 211.980469 290.117188 C 208.140625 289.191406 204.179688 288.445312 200.261719 287.972656 C 196.597656 287.527344 192.691406 287.433594 189.152344 286.355469 C 188.839844 285.988281 188.828125 285.859375 188.730469 285.378906 C 188.835938 285.011719 188.945312 284.765625 189.226562 284.503906 C 192.371094 281.566406 210.289062 281.652344 215.015625 281.75 C 206.753906 277.011719 200.796875 277.640625 191.714844 277.964844 C 190.113281 278.019531 187.976562 278.105469 186.734375 276.953125 C 186.582031 276.464844 186.527344 276.359375 186.765625 275.871094 C 188.003906 273.359375 193.5625 271.304688 196.023438 270.519531 C 204.003906 268.410156 210.609375 269.242188 218.261719 271.875 C 216.164062 270.589844 214.066406 269.335938 211.839844 268.285156 C 201.433594 263.367188 187.8125 265.355469 177.304688 269.09375 C 176.742188 266.921875 176.167969 264.761719 175.785156 262.550781 C 172.410156 266.335938 171.886719 271.484375 168.828125 275.046875 C 167.21875 276.921875 164.527344 278.113281 162.566406 279.652344 C 159.394531 282.148438 156.625 285.144531 154.042969 288.238281 C 144.992188 299.09375 136.554688 315.949219 131.6875 329.175781 C 130.839844 331.484375 129.9375 333.890625 129.25 336.246094 C 128.625 338.402344 128.300781 340.929688 127.320312 342.9375 C 127.011719 343.5625 126.636719 344.125 125.957031 344.363281 C 125.488281 344.144531 125.34375 343.96875 125.179688 343.464844 C 124.011719 339.878906 129.914062 326.386719 131.484375 322.6875 C 133.964844 316.859375 133.617188 310.730469 134.089844 304.527344 C 134.578125 298.09375 136.761719 282.265625 139.425781 276.46875 C 139.742188 275.785156 140.003906 275.367188 140.726562 275.105469 L 141.113281 275.289062 C 141.972656 276.835938 141.007812 280.207031 140.597656 281.84375 C 138.214844 291.378906 138.234375 295.992188 139.46875 305.570312 C 144.363281 296.355469 150.695312 286.929688 158.308594 279.726562 C 160.90625 277.269531 164.566406 275.492188 166.796875 272.835938 C 168.152344 271.21875 169 269.292969 169.941406 267.421875 C 171.386719 264.542969 172.960938 262.097656 175.273438 259.835938 C 174.613281 256.941406 173.589844 253.953125 173.257812 251.007812 C 173.035156 249.003906 173.359375 247.425781 174.667969 245.855469 C 178.78125 240.929688 187.601562 239.734375 193.621094 239.203125 C 203.191406 238.351562 219.753906 238.835938 227.164062 245.148438 C 228.59375 246.363281 229.757812 247.972656 229.871094 249.902344 C 230.011719 252.238281 228.703125 253.902344 227.25 255.550781 C 225.351562 267.53125 223.699219 279.546875 221.742188 291.519531 C 220.984375 296.15625 220.453125 301.019531 219.378906 305.589844 C 219.167969 306.492188 218.898438 307.472656 218.394531 308.261719 C 216.882812 310.632812 212.957031 311.519531 210.363281 311.980469 C 204.445312 313.027344 192.375 313.460938 187.53125 309.898438 C 184.527344 307.6875 184.109375 299.035156 183.660156 295.453125 C 179.859375 296.230469 175.460938 296.78125 171.914062 298.371094 C 169.355469 299.515625 167.621094 301.609375 165.835938 303.695312 C 156.464844 314.621094 152.203125 328.152344 147.785156 341.589844 C 145.980469 347.234375 144.011719 352.824219 141.878906 358.351562 C 142.242188 360.367188 143.691406 369.007812 143.210938 370.59375 C 143.070312 371.066406 142.925781 371.257812 142.503906 371.492188 L 142.050781 371.359375 C 139.972656 369.503906 139.933594 365.152344 139.667969 362.523438 C 139.015625 363.546875 138.34375 364.539062 137.539062 365.453125 C 134.5625 368.832031 130.148438 370.777344 125.683594 371.0625 C 122.039062 371.296875 118.753906 370.554688 115.980469 368.078125 C 108.777344 361.640625 107.46875 347.886719 106.96875 338.675781 C 106.457031 329.191406 106.867188 319.609375 107.058594 310.117188 C 107.226562 301.675781 107.53125 293.28125 108.300781 284.867188 C 109.636719 270.355469 112.054688 255.394531 122.765625 244.457031 C 128.933594 238.160156 137.984375 234.816406 146.097656 231.792969 C 153.414062 229.0625 165.4375 225.585938 170.5625 219.78125 C 173.558594 216.394531 174.445312 211.855469 174.179688 207.457031 C 173.921875 203.128906 172.246094 193.484375 169.347656 190.101562 C 167.765625 188.257812 165.171875 187.191406 163.226562 185.730469 C 159.691406 183.039062 156.265625 180.214844 152.957031 177.25 C 135.730469 161.796875 121.710938 139.632812 120.441406 116.027344 C 119.304688 94.902344 128.734375 74.226562 142.699219 58.734375 C 152.722656 47.617188 166.660156 38.300781 181.96875 37.496094 Z M 182.34375 40.140625 C 166.726562 41.300781 153.269531 50.582031 143.289062 62.15625 C 130.832031 76.597656 121.707031 96.492188 123.144531 115.902344 C 124.933594 140.101562 139.433594 161.886719 157.421875 177.375 C 167.289062 185.871094 178.40625 192.523438 189.878906 198.609375 C 193.664062 200.203125 197.863281 202.183594 201.972656 200.433594 C 209.980469 197.023438 226.394531 172.035156 230.855469 164.132812 C 234.558594 157.5625 237.929688 150.65625 240.597656 143.601562 C 248.050781 123.917969 248.359375 104.417969 239.632812 85.089844 C 231.570312 67.230469 215.707031 49.699219 197.054688 42.730469 C 192.390625 40.988281 187.351562 39.765625 182.34375 40.140625 Z M 174.835938 251.6875 C 176.820312 255.089844 179.816406 256.582031 183.519531 257.566406 C 191.363281 259.652344 199.269531 259.195312 207.28125 258.972656 C 212.832031 258.507812 223.183594 257.628906 226.867188 253.179688 C 227.691406 252.179688 228.25 250.855469 228.101562 249.542969 C 227.925781 248.011719 226.824219 246.8125 225.632812 245.933594 C 219.417969 241.34375 209.800781 240.980469 202.3125 240.726562 C 200.261719 240.65625 198.113281 240.492188 196.074219 240.6875 C 190.320312 241.121094 180.394531 242.105469 176.398438 246.558594 C 174.996094 248.125 174.769531 249.679688 174.835938 251.6875 Z M 185.363281 295.183594 C 185.917969 299.347656 186.167969 304.546875 187.96875 308.347656 L 188.382812 308.660156 C 195.46875 311.96875 206.136719 312.0625 213.449219 309.449219 C 214.792969 308.96875 215.964844 308.371094 217.105469 307.507812 C 217.820312 304.898438 220.226562 294.03125 219.878906 292.21875 L 219.6875 292.226562 C 216.441406 293.355469 210.9375 292.59375 207.347656 292.785156 C 200.089844 293.171875 192.46875 293.648438 185.363281 295.183594 Z M 178.304688 266.535156 C 190.085938 263.054688 203.773438 260.8125 215.085938 266.914062 C 215.804688 267.304688 216.507812 267.71875 217.195312 268.164062 C 217.878906 268.609375 218.546875 269.078125 219.199219 269.570312 C 219.851562 270.066406 220.480469 270.585938 221.09375 271.125 C 221.703125 271.667969 222.292969 272.234375 222.863281 272.820312 C 223.085938 271.921875 223.285156 271.039062 223.425781 270.121094 C 224.082031 265.660156 224.980469 261.09375 225.300781 256.597656 C 213.847656 261.5 192.1875 263.007812 180.621094 258.371094 C 179.082031 257.757812 177.757812 256.96875 176.378906 256.0625 C 176.980469 259.515625 177.398438 263.164062 178.304688 266.535156 Z M 222.304688 275.332031 C 219.222656 275.121094 216.386719 273.789062 213.449219 272.933594 C 210.601562 272.101562 207.796875 272.023438 204.855469 272.152344 C 199.605469 272.484375 195.667969 273.554688 190.714844 275.195312 C 197.417969 274.621094 205.691406 274.214844 211.964844 276.855469 C 214.097656 277.753906 216.019531 279.09375 217.789062 280.574219 C 218.644531 281.289062 220.128906 282.472656 220.332031 283.605469 C 220.371094 283.824219 220.359375 284.082031 220.183594 284.242188 C 218.953125 285.355469 211.570312 284.460938 209.601562 284.417969 C 208.070312 284.378906 206.539062 284.425781 205.011719 284.5625 C 202.683594 284.617188 200.367188 284.910156 198.054688 285.15625 C 205.296875 285.925781 213.816406 286.878906 220.207031 290.558594 C 220.957031 285.515625 221.914062 280.414062 222.304688 275.332031 Z M 222.304688 275.332031 "/></g><path style=" stroke:none;fill-rule:nonzero;fill:#b076ce;fill-opacity:1;" d="M 146.3125 107.015625 C 154.765625 106.390625 163.191406 109.75 169.953125 114.660156 C 178.578125 120.925781 184.707031 130.976562 187.585938 141.144531 C 188.386719 143.972656 188.851562 146.839844 189.320312 149.738281 C 184.65625 152.417969 178.84375 153.710938 173.558594 154.457031 C 164.515625 155.792969 155.175781 154.578125 147.453125 149.484375 C 139.894531 144.496094 133.265625 136.300781 131.445312 127.277344 C 130.585938 123.019531 131.078125 118.417969 133.535156 114.757812 C 136.488281 110.367188 141.253906 108.011719 146.3125 107.015625 Z M 166.128906 124.828125 C 166.691406 124.699219 167.058594 124.460938 167.527344 124.148438 C 167.722656 123.695312 167.777344 123.492188 167.578125 123.019531 C 166.785156 121.136719 163.636719 119.269531 161.753906 118.625 C 160.304688 118.128906 158.855469 117.738281 157.328125 117.613281 C 156.648438 117.820312 155.671875 118.082031 155.246094 118.699219 C 155.097656 118.917969 155.175781 119.074219 155.203125 119.320312 C 155.542969 119.78125 155.871094 120.03125 156.382812 120.292969 C 157.792969 121.015625 159.386719 121.253906 160.820312 121.898438 C 162.664062 122.726562 164.230469 124.039062 166.128906 124.828125 Z M 166.128906 124.828125 "/><path style=" stroke:none;fill-rule:nonzero;fill:#b076ce;fill-opacity:1;" d="M 231.296875 103.214844 C 234.195312 103 237.054688 103.828125 239.28125 105.738281 C 242.640625 108.625 244.175781 113.316406 244.503906 117.609375 C 245.15625 126.070312 240.859375 137.582031 235.316406 143.914062 C 231.148438 148.679688 226.222656 150.761719 219.980469 151.195312 C 217.042969 151.289062 214.15625 150.855469 211.40625 149.792969 C 209.980469 149.242188 207.417969 148.191406 206.855469 146.679688 C 206.4375 145.558594 206.664062 143.96875 206.738281 142.785156 C 206.800781 141.878906 206.882812 140.972656 206.988281 140.070312 C 207.09375 139.167969 207.222656 138.269531 207.371094 137.371094 C 207.523438 136.476562 207.695312 135.582031 207.890625 134.695312 C 208.082031 133.808594 208.300781 132.925781 208.539062 132.046875 C 208.777344 131.171875 209.035156 130.300781 209.316406 129.433594 C 209.597656 128.570312 209.898438 127.714844 210.222656 126.863281 C 210.546875 126.015625 210.890625 125.171875 211.257812 124.339844 C 211.621094 123.507812 212.007812 122.6875 212.414062 121.871094 C 216.378906 113.972656 222.632812 106.066406 231.296875 103.214844 Z M 228.949219 123.109375 C 230.207031 122.144531 231.476562 121.238281 232.855469 120.457031 C 234.6875 119.421875 239.003906 118.03125 239.628906 115.835938 C 239.46875 115.367188 239.421875 115.253906 238.953125 115.003906 C 238.347656 114.679688 237.441406 114.65625 236.773438 114.609375 C 233.148438 115.429688 228.9375 117.753906 226.972656 121.015625 C 226.578125 121.675781 226.351562 122.277344 226.304688 123.042969 C 226.5 123.511719 226.46875 123.515625 226.925781 123.730469 C 227.726562 123.695312 228.25 123.480469 228.949219 123.109375 Z M 228.949219 123.109375 "/><path style=" stroke:none;fill-rule:nonzero;fill:#b076ce;fill-opacity:1;" d="M 149.542969 99.28125 C 152.390625 99.070312 155.304688 99.371094 158.109375 99.886719 C 161.53125 100.519531 169.453125 103.039062 171.304688 106.117188 C 171.570312 106.5625 171.648438 106.816406 171.53125 107.316406 C 171.042969 107.722656 170.304688 107.652344 169.71875 107.535156 C 167.929688 107.167969 166.117188 105.875 164.460938 105.085938 C 158.550781 102.269531 152.695312 101.601562 146.25 102.519531 C 142.953125 103.445312 140.027344 104.648438 137.300781 106.757812 C 135.347656 108.269531 132.097656 112.859375 130.230469 113.347656 C 129.832031 113.449219 129.820312 113.441406 129.449219 113.230469 C 129.363281 113 129.339844 112.972656 129.316406 112.695312 C 129.199219 111.28125 130.730469 109.335938 131.605469 108.285156 C 136.203125 102.757812 142.472656 99.914062 149.542969 99.28125 Z M 149.542969 99.28125 "/><path style=" stroke:none;fill-rule:nonzero;fill:#b076ce;fill-opacity:1;" d="M 228.390625 97.941406 C 232.558594 97.710938 237.28125 98.855469 240.734375 101.246094 C 242.730469 102.632812 244.800781 104.695312 245.183594 107.1875 C 245.277344 107.804688 245.277344 108.296875 244.902344 108.816406 C 243.355469 109.136719 240.972656 105.234375 239.820312 104.199219 C 238.835938 103.316406 237.742188 102.769531 236.566406 102.195312 C 236.273438 102.078125 235.980469 101.96875 235.683594 101.867188 C 235.390625 101.765625 235.089844 101.671875 234.789062 101.582031 C 234.488281 101.496094 234.1875 101.414062 233.882812 101.34375 C 233.578125 101.269531 233.273438 101.203125 232.964844 101.144531 C 232.65625 101.085938 232.347656 101.035156 232.039062 100.992188 C 231.730469 100.949219 231.417969 100.914062 231.105469 100.886719 C 230.792969 100.855469 230.484375 100.835938 230.171875 100.824219 C 229.855469 100.808594 229.542969 100.804688 229.230469 100.804688 C 228.917969 100.808594 228.605469 100.816406 228.292969 100.835938 C 227.980469 100.851562 227.667969 100.875 227.359375 100.910156 C 227.046875 100.941406 226.734375 100.980469 226.425781 101.027344 C 226.117188 101.074219 225.808594 101.128906 225.5 101.191406 C 225.195312 101.253906 224.890625 101.324219 224.585938 101.402344 C 224.285156 101.476562 223.980469 101.5625 223.683594 101.652344 C 223.382812 101.746094 223.085938 101.84375 222.792969 101.949219 C 222.496094 102.054688 222.207031 102.167969 221.917969 102.289062 C 220.523438 102.871094 219.171875 103.808594 217.75 104.277344 C 217.300781 104.425781 216.960938 104.363281 216.523438 104.25 C 216.25 103.996094 216.085938 103.921875 215.980469 103.546875 C 215.828125 103.003906 215.917969 102.71875 216.234375 102.257812 C 217.957031 99.730469 225.582031 98.296875 228.390625 97.941406 Z M 228.390625 97.941406 "/><path style=" stroke:none;fill-rule:nonzero;fill:#b076ce;fill-opacity:1;" d="M 151.285156 154.53125 C 153.714844 155.023438 155.863281 156.410156 158.285156 157.015625 C 163.050781 158.210938 168.058594 158.050781 172.824219 156.914062 C 174.636719 156.484375 176.445312 155.78125 178.289062 155.511719 C 179.050781 155.402344 179.546875 155.371094 180.179688 155.835938 C 180.234375 156.640625 179.859375 157.023438 179.367188 157.605469 C 178.023438 158.121094 176.679688 158.628906 175.296875 159.042969 C 168.511719 161.074219 158.730469 161.386719 152.367188 157.769531 C 151.664062 157.371094 150.957031 156.796875 150.804688 155.957031 C 150.699219 155.398438 151.003906 154.980469 151.285156 154.53125 Z M 151.285156 154.53125 "/><path style=" stroke:none;fill-rule:nonzero;fill:#b076ce;fill-opacity:1;" d="M 234.21875 147.859375 C 234.785156 147.964844 235.074219 148.101562 235.554688 148.421875 C 235.804688 148.886719 235.929688 149.125 235.777344 149.65625 C 235.195312 151.679688 231.429688 153.84375 229.695312 154.789062 C 224.53125 157.605469 218.984375 158.007812 213.371094 156.378906 C 212.75 156.074219 212.21875 155.773438 211.875 155.144531 C 211.625 154.683594 211.617188 154.496094 211.789062 154.011719 C 212.839844 153.351562 216.851562 154.523438 218.25 154.671875 C 224.90625 155.375 229.359375 151.816406 234.21875 147.859375 Z M 234.21875 147.859375 "/><path style=" stroke:none;fill-rule:nonzero;fill:#b076ce;fill-opacity:1;" d="M 210.769531 106.117188 C 211.007812 106.160156 211.175781 106.183594 211.410156 106.273438 C 211.882812 106.457031 212.035156 106.765625 212.214844 107.199219 C 212.140625 107.78125 211.894531 108.257812 211.636719 108.777344 C 210.355469 111.335938 208.765625 113.742188 207.464844 116.296875 C 205.574219 120.007812 204.089844 124.410156 201.585938 127.730469 C 201.171875 127.609375 200.832031 127.449219 200.453125 127.246094 C 200.222656 126.878906 200.125 126.726562 200.121094 126.273438 C 200.085938 123.046875 208.230469 108.675781 210.769531 106.117188 Z M 210.769531 106.117188 "/><path style=" stroke:none;fill-rule:nonzero;fill:#b076ce;fill-opacity:1;" d="M 178.164062 109.308594 C 178.425781 109.390625 178.679688 109.46875 178.921875 109.59375 C 181.445312 110.914062 190.378906 123.828125 191.332031 126.828125 C 191.570312 127.578125 191.425781 127.992188 191.089844 128.679688 C 190.667969 128.632812 190.152344 128.597656 189.78125 128.371094 C 188.558594 127.617188 187.253906 124.839844 186.457031 123.613281 C 183.929688 119.726562 180.9375 116.167969 178.410156 112.296875 C 178.085938 111.800781 177.71875 111.28125 177.636719 110.679688 C 177.558594 110.132812 177.878906 109.738281 178.164062 109.308594 Z M 178.164062 109.308594 "/><path style=" stroke:none;fill-rule:nonzero;fill:#b076ce;fill-opacity:1;" d="M 195.734375 150.074219 C 196.222656 150.257812 196.457031 150.390625 196.804688 150.785156 C 196.925781 151.195312 196.996094 151.507812 196.941406 151.941406 C 196.722656 153.671875 195.453125 155.78125 194.085938 156.828125 L 193.792969 156.640625 C 193.578125 156.507812 193.285156 156.355469 193.117188 156.164062 C 192.828125 155.832031 192.71875 155.414062 192.707031 154.980469 C 192.644531 153.132812 194.554688 151.320312 195.734375 150.074219 Z M 195.734375 150.074219 "/><path style=" stroke:none;fill-rule:nonzero;fill:#b076ce;fill-opacity:1;" d="M 202.617188 150.449219 C 202.957031 150.492188 203.304688 150.5625 203.621094 150.703125 C 204.789062 151.214844 205.789062 152.632812 206.179688 153.8125 C 206.511719 154.816406 206.453125 155.425781 205.976562 156.363281 C 205.59375 156.378906 205.351562 156.390625 204.992188 156.246094 C 204.113281 155.886719 203.257812 154.519531 202.902344 153.683594 C 202.40625 152.511719 202.105469 151.65625 202.617188 150.449219 Z M 202.617188 150.449219 "/><path style=" stroke:none;fill-rule:nonzero;fill:#b076ce;fill-opacity:1;" d="M 202.941406 175.039062 L 203.300781 175.398438 C 203.414062 175.84375 203.449219 175.910156 203.222656 176.339844 C 202.800781 177.144531 201.945312 177.664062 201.085938 177.890625 C 199.058594 178.417969 197.113281 177.980469 195.351562 176.953125 C 195.128906 176.488281 194.878906 176.082031 194.925781 175.546875 L 195.214844 175.339844 C 196.019531 175.371094 196.800781 175.761719 197.539062 176.070312 C 197.835938 176.195312 198.136719 176.335938 198.445312 176.425781 C 199.871094 176.84375 201.730469 175.699219 202.941406 175.039062 Z M 202.941406 175.039062 "/><path style=" stroke:none;fill-rule:nonzero;fill:#b076ce;fill-opacity:1;" d="M 199.746094 245.253906 C 204.816406 244.980469 217.578125 246.335938 221.386719 249.308594 C 221.992188 249.78125 222.605469 250.460938 222.601562 251.28125 C 222.59375 251.921875 222.257812 252.457031 221.804688 252.882812 C 218.464844 256.03125 207.445312 256.730469 202.84375 256.75 C 196.566406 256.816406 187.492188 256.230469 182.132812 252.816406 C 181.464844 252.390625 180.679688 251.746094 180.605469 250.894531 C 180.558594 250.390625 180.824219 249.933594 181.160156 249.582031 C 184.09375 246.496094 195.234375 245.394531 199.746094 245.253906 Z M 199.746094 245.253906 "/><path style=" stroke:none;fill-rule:nonzero;fill:#b076ce;fill-opacity:1;" d="M 243.671875 272.53125 C 244.222656 272.671875 244.535156 272.773438 245 273.121094 C 245.394531 273.867188 245.101562 275.089844 244.972656 275.902344 C 244.417969 279.488281 243.441406 283.023438 242.789062 286.597656 C 241.660156 292.804688 240.882812 299.082031 240.136719 305.347656 C 239.707031 308.957031 239.089844 312.734375 239.359375 316.367188 C 239.703125 320.988281 240.890625 325.566406 241.53125 330.15625 C 242.667969 338.269531 243.367188 346.449219 244.382812 354.582031 C 245.074219 360.140625 246.136719 365.742188 246.671875 371.308594 C 246.734375 371.976562 246.824219 372.945312 246.550781 373.578125 C 246.339844 374.058594 246.121094 374.152344 245.683594 374.355469 C 245.398438 374.332031 245.09375 374.390625 244.875 374.179688 C 244.324219 373.648438 244.066406 372.585938 243.914062 371.859375 C 242.914062 367.078125 242.527344 362.085938 241.960938 357.238281 L 239.089844 333.261719 L 238.472656 328.078125 C 237.984375 332.136719 238.054688 336.320312 237.964844 340.402344 C 237.792969 347.4375 237.734375 354.472656 237.792969 361.511719 C 237.832031 363.882812 238.417969 371.484375 238.015625 373.300781 C 237.898438 373.84375 237.714844 374.242188 237.253906 374.570312 C 236.8125 374.609375 236.523438 374.703125 236.160156 374.375 C 234.84375 373.191406 235.011719 365.011719 234.96875 362.933594 C 234.824219 356.527344 234.820312 350.117188 234.964844 343.710938 C 235.105469 337.300781 235.390625 330.902344 235.820312 324.503906 C 236.25 318.109375 236.824219 311.726562 237.539062 305.359375 C 238.253906 298.988281 239.109375 292.640625 240.109375 286.308594 C 240.644531 282.90625 241.363281 274.949219 243.671875 272.53125 Z M 243.671875 272.53125 "/><path style=" stroke:none;fill-rule:nonzero;fill:#b076ce;fill-opacity:1;" d="M 181.101562 200.574219 C 181.628906 200.539062 181.914062 200.535156 182.417969 200.730469 C 183.449219 201.855469 183.601562 204.640625 183.824219 206.117188 C 184.378906 209.820312 186.105469 222.40625 185.589844 225.53125 C 185.515625 225.984375 185.261719 226.339844 184.996094 226.703125 C 184.652344 226.558594 184.308594 226.417969 183.964844 226.269531 C 183.609375 225.851562 183.554688 225.484375 183.46875 224.960938 C 182.953125 221.785156 182.773438 218.488281 182.359375 215.285156 C 181.800781 210.960938 181.015625 206.664062 180.472656 202.34375 C 180.375 201.550781 180.632812 201.1875 181.101562 200.574219 Z M 181.101562 200.574219 "/><path style=" stroke:none;fill-rule:nonzero;fill:#b076ce;fill-opacity:1;" d="M 164.785156 329.023438 C 167.03125 328.878906 170.378906 328.65625 172.433594 329.753906 C 172.789062 329.945312 172.671875 329.828125 172.792969 330.246094 C 172.363281 330.722656 172 330.773438 171.402344 330.980469 C 171.171875 331.03125 170.945312 331.074219 170.714844 331.105469 C 168.539062 331.414062 164.972656 331.175781 163.171875 329.828125 L 163.195312 329.523438 C 163.691406 329.195312 164.214844 329.132812 164.785156 329.023438 Z M 164.785156 329.023438 "/><path style=" stroke:none;fill-rule:nonzero;fill:#b076ce;fill-opacity:1;" d="M 226.683594 323.507812 C 227.195312 323.460938 227.785156 323.351562 228.285156 323.503906 C 228.625 323.609375 228.496094 323.53125 228.683594 323.890625 C 228.578125 324.101562 228.578125 324.128906 228.394531 324.332031 C 227.261719 325.582031 224.902344 326.132812 223.316406 326.339844 C 222.507812 326.265625 221.421875 326.269531 220.820312 325.648438 L 220.914062 325.285156 C 222.359375 324.113281 224.878906 323.746094 226.683594 323.507812 Z M 226.683594 323.507812 "/><path style=" stroke:none;fill-rule:evenodd;fill:#000000;fill-opacity:1;" d="M 179.921875 5.011719 C 172.113281 6.472656 152.898438 12.074219 135.367188 33.046875 C 123.304688 47.476562 125.84375 73.25 125.84375 73.25 C 125.84375 73.25 138.070312 78.699219 151.125 80.648438 C 162.015625 82.273438 178.609375 80.191406 183.871094 79.453125 C 189.164062 79.890625 205.851562 81.015625 216.628906 78.769531 C 229.550781 76.078125 241.445312 69.933594 241.445312 69.933594 C 241.445312 69.933594 242.503906 44.058594 229.632812 30.34375 C 210.925781 10.410156 191.425781 5.917969 183.542969 4.90625 C 182.332031 4.785156 181.125 4.820312 179.921875 5.011719 Z M 179.921875 5.011719 "/><path style=" stroke:none;fill-rule:evenodd;fill:#ffffff;fill-opacity:1;" d="M 172.488281 6.945312 C 170.183594 7.699219 167.925781 8.574219 165.710938 9.5625 C 166.441406 11.820312 167.003906 13.867188 167.109375 15.105469 C 167.460938 19.273438 163.492188 74.722656 162.8125 75.320312 C 162.132812 75.921875 152.625 76.453125 150.980469 75.804688 C 149.535156 75.234375 130.625 68.394531 125.625 66.585938 C 125.585938 70.625 125.84375 73.25 125.84375 73.25 C 125.84375 73.25 138.070312 78.699219 151.125 80.648438 C 156.542969 81.457031 163.371094 81.347656 169.511719 80.941406 C 169.574219 80.402344 169.636719 79.777344 169.699219 78.996094 L 166.125 79.132812 C 166.125 79.132812 170.203125 24.839844 172.488281 6.945312 Z M 191.605469 6.550781 C 194.558594 24.484375 202.035156 77.773438 202.035156 77.773438 L 198.539062 77.90625 C 198.660156 78.800781 198.769531 79.519531 198.875 80.117188 C 204.878906 80.148438 211.4375 79.851562 216.628906 78.769531 C 229.550781 76.078125 241.445312 69.933594 241.445312 69.933594 C 241.445312 69.933594 241.550781 67.398438 241.296875 63.496094 C 235.804688 65.847656 218.457031 73.269531 217.078125 73.910156 C 215.476562 74.652344 205.953125 74.664062 205.238281 74.105469 C 204.527344 73.542969 197.386719 18.414062 197.496094 14.234375 C 197.53125 13.03125 197.949219 11.046875 198.519531 8.84375 C 196.253906 7.960938 193.949219 7.195312 191.605469 6.550781 Z M 203.664062 11.0625 C 204.820312 18.636719 208.082031 47.125 208.941406 47.417969 C 209.671875 47.667969 210.148438 25.777344 210.238281 14.582031 C 207.980469 13.234375 205.78125 12.070312 203.664062 11.0625 Z M 160.078125 12.367188 C 158.027344 13.5 155.902344 14.789062 153.730469 16.265625 C 154.460938 27.457031 156.1875 49.203125 156.902344 48.914062 C 157.742188 48.570312 159.359375 20.074219 160.078125 12.367188 Z M 144.945312 23.136719 C 142.960938 24.90625 140.972656 26.847656 138.980469 28.964844 C 140.125 36.597656 141.855469 49.082031 142.566406 49.324219 C 143.453125 49.628906 144.949219 27.976562 144.945312 23.136719 Z M 219.667969 21.132812 C 219.988281 26.25 222.679688 47.351562 223.539062 47 C 224.230469 46.71875 225.230469 34.3125 225.9375 26.613281 C 223.839844 24.605469 221.746094 22.789062 219.671875 21.132812 Z M 219.667969 21.132812 "/><path style=" stroke:none;fill-rule:evenodd;fill:#000000;fill-opacity:1;" d="M 166.125 79.132812 C 166.125 79.132812 171.945312 1.652344 173.574219 1.277344 C 175.207031 0.902344 189.625 -0.00390625 190.464844 0.628906 C 191.304688 1.261719 202.035156 77.773438 202.035156 77.773438 Z M 166.125 79.132812 "/><path style=" stroke:none;fill-rule:evenodd;fill:#ffffff;fill-opacity:1;" d="M 160.875 80.601562 C 164.5 81.542969 206.234375 79.761719 206.570312 79.289062 C 206.902344 78.816406 207.007812 74.285156 206.542969 74.300781 C 206.078125 74.3125 162.9375 75.667969 162.9375 75.667969 Z M 160.875 80.601562 "/><g clip-rule="nonzero" clip-path="url(#38085ff14f)"><path style=" stroke:none;fill-rule:evenodd;fill:#000000;fill-opacity:1;" d="M 125.984375 70.109375 C 125.0625 70.371094 116.359375 74.449219 116.277344 75.613281 C 116.195312 76.773438 116.1875 88.730469 116.683594 89.761719 C 117.175781 90.792969 124.851562 87.203125 126.949219 87.492188 C 129.046875 87.78125 145.371094 94.507812 149.691406 95.3125 C 153.367188 96 176.570312 95.113281 184.300781 94.523438 C 192.058594 94.667969 215.269531 94.222656 218.902344 93.328125 C 223.167969 92.277344 239.082031 84.625 241.160156 84.214844 C 243.238281 83.808594 251.105469 86.949219 251.539062 85.890625 C 251.972656 84.835938 251.28125 72.898438 251.132812 71.742188 C 250.984375 70.585938 242.058594 67.011719 241.125 66.808594 C 240.191406 66.601562 220.148438 76 215.871094 76.703125 C 203.09375 77.714844 173.535156 77.914062 151.761719 78.539062 C 147.453125 78.082031 126.90625 69.851562 125.984375 70.109375 Z M 125.984375 70.109375 "/></g><path style=" stroke:none;fill-rule:evenodd;fill:#000000;fill-opacity:1;" d="M 223.332031 47.125 C 223.332031 47.125 223.136719 20.289062 222.449219 19.160156 C 221.757812 18.03125 210.460938 10.476562 208.820312 10.441406 C 207.175781 10.40625 209.109375 47.296875 209.109375 47.296875 Z M 223.332031 47.125 "/><path style=" stroke:none;fill-rule:evenodd;fill:#000000;fill-opacity:1;" d="M 142.621094 49.4375 C 142.621094 49.4375 141.277344 22.640625 141.898438 21.472656 C 142.523438 20.304688 153.367188 12.117188 155.003906 11.984375 C 156.644531 11.855469 156.828125 48.796875 156.828125 48.796875 Z M 142.621094 49.4375 "/></g></svg>