<svg xmlns="http://www.w3.org/2000/svg" xmlns:xlink="http://www.w3.org/1999/xlink" width="500" zoomAndPan="magnify" viewBox="0 0 375 374.999991" height="500" preserveAspectRatio="xMidYMid meet" version="1.2"><defs><clipPath id="dadfd06623"><path d="M 8 9.886719 L 367 9.886719 L 367 365.386719 L 8 365.386719 Z M 8 9.886719 "/></clipPath></defs><g id="84ff700aa4"><g clip-rule="nonzero" clip-path="url(#dadfd06623)"><path style=" stroke:none;fill-rule:nonzero;fill:#b076ce;fill-opacity:1;" d="M 187.457031 9.910156 C 184.707031 9.910156 181.960938 9.976562 179.214844 10.105469 C 176.46875 10.230469 173.726562 10.421875 170.988281 10.675781 C 168.25 10.929688 165.519531 11.246094 162.796875 11.625 C 160.074219 12.003906 157.363281 12.445312 154.660156 12.949219 C 151.957031 13.453125 149.265625 14.019531 146.589844 14.644531 C 143.914062 15.273438 141.253906 15.960938 138.609375 16.710938 C 135.964844 17.460938 133.339844 18.273438 130.730469 19.144531 C 128.121094 20.015625 125.535156 20.945312 122.972656 21.933594 C 120.40625 22.925781 117.867188 23.972656 115.351562 25.078125 C 112.832031 26.183594 110.34375 27.347656 107.878906 28.570312 C 105.417969 29.792969 102.984375 31.066406 100.578125 32.402344 C 98.175781 33.734375 95.804688 35.121094 93.460938 36.5625 C 91.121094 38.007812 88.816406 39.5 86.542969 41.050781 C 84.273438 42.597656 82.039062 44.195312 79.839844 45.847656 C 77.640625 47.5 75.480469 49.199219 73.363281 50.949219 C 71.242188 52.699219 69.164062 54.496094 67.125 56.34375 C 65.089844 58.191406 63.09375 60.082031 61.144531 62.019531 C 59.195312 63.957031 57.289062 65.9375 55.429688 67.960938 C 53.570312 69.988281 51.761719 72.054688 49.996094 74.164062 C 48.230469 76.269531 46.515625 78.417969 44.851562 80.605469 C 43.1875 82.792969 41.570312 85.019531 40.007812 87.28125 C 38.445312 89.542969 36.9375 91.835938 35.480469 94.167969 C 34.019531 96.5 32.617188 98.863281 31.269531 101.257812 C 29.921875 103.652344 28.628906 106.078125 27.390625 108.535156 C 26.152344 110.988281 24.972656 113.472656 23.851562 115.980469 C 22.726562 118.488281 21.664062 121.023438 20.65625 123.582031 C 19.648438 126.140625 18.703125 128.71875 17.816406 131.320312 C 16.925781 133.921875 16.097656 136.542969 15.332031 139.183594 C 14.5625 141.824219 13.859375 144.480469 13.214844 147.152344 C 12.566406 149.824219 11.984375 152.511719 11.460938 155.210938 C 10.941406 157.910156 10.480469 160.617188 10.085938 163.339844 C 9.6875 166.058594 9.355469 168.785156 9.082031 171.523438 C 8.808594 174.257812 8.601562 177 8.457031 179.742188 C 8.3125 182.488281 8.230469 185.238281 8.210938 187.984375 C 8.191406 190.734375 8.234375 193.484375 8.339844 196.230469 C 8.449219 198.976562 8.617188 201.71875 8.851562 204.457031 C 9.085938 207.199219 9.382812 209.929688 9.742188 212.65625 C 10.101562 215.382812 10.519531 218.097656 11.003906 220.804688 C 11.488281 223.507812 12.035156 226.203125 12.644531 228.882812 C 13.25 231.566406 13.917969 234.230469 14.648438 236.882812 C 15.378906 239.53125 16.171875 242.164062 17.023438 244.777344 C 17.875 247.390625 18.785156 249.984375 19.757812 252.554688 C 20.726562 255.128906 21.757812 257.675781 22.84375 260.203125 C 23.933594 262.726562 25.078125 265.222656 26.28125 267.695312 C 27.484375 270.167969 28.742188 272.613281 30.058594 275.027344 C 31.371094 277.441406 32.742188 279.824219 34.167969 282.171875 C 35.59375 284.523438 37.070312 286.839844 38.601562 289.125 C 40.132812 291.40625 41.714844 293.65625 43.351562 295.863281 C 44.984375 298.074219 46.667969 300.246094 48.402344 302.378906 C 50.136719 304.511719 51.921875 306.605469 53.75 308.65625 C 55.582031 310.707031 57.460938 312.714844 59.382812 314.679688 C 61.304688 316.644531 63.273438 318.5625 65.285156 320.4375 C 67.296875 322.308594 69.347656 324.136719 71.445312 325.917969 C 73.539062 327.695312 75.675781 329.425781 77.847656 331.109375 C 80.023438 332.789062 82.238281 334.421875 84.488281 336 C 86.738281 337.578125 89.019531 339.105469 91.339844 340.582031 C 93.660156 342.054688 96.015625 343.476562 98.398438 344.84375 C 100.785156 346.210938 103.199219 347.519531 105.648438 348.777344 C 108.09375 350.03125 110.566406 351.230469 113.066406 352.371094 C 115.566406 353.511719 118.09375 354.597656 120.644531 355.621094 C 123.195312 356.648438 125.769531 357.613281 128.363281 358.519531 C 130.957031 359.425781 133.574219 360.273438 136.207031 361.0625 C 138.839844 361.847656 141.492188 362.574219 144.160156 363.238281 C 146.828125 363.902344 149.507812 364.507812 152.203125 365.046875 L 152.203125 219.386719 C 152.203125 218.234375 152.261719 217.082031 152.371094 215.933594 C 152.484375 214.785156 152.65625 213.644531 152.878906 212.511719 C 153.105469 211.378906 153.386719 210.261719 153.722656 209.15625 C 154.054688 208.050781 154.445312 206.964844 154.886719 205.898438 C 155.328125 204.832031 155.820312 203.789062 156.367188 202.769531 C 156.910156 201.753906 157.503906 200.761719 158.144531 199.804688 C 158.785156 198.84375 159.472656 197.917969 160.207031 197.023438 C 160.9375 196.132812 161.710938 195.277344 162.527344 194.460938 C 163.34375 193.644531 164.199219 192.871094 165.09375 192.136719 C 165.984375 191.40625 166.910156 190.71875 167.871094 190.078125 C 168.832031 189.433594 169.820312 188.84375 170.839844 188.296875 C 171.855469 187.753906 172.898438 187.261719 173.964844 186.820312 C 175.03125 186.378906 176.117188 185.988281 177.222656 185.652344 C 178.328125 185.320312 179.445312 185.039062 180.578125 184.8125 C 181.710938 184.585938 182.851562 184.417969 184 184.304688 C 185.148438 184.191406 186.300781 184.136719 187.457031 184.136719 C 188.609375 184.136719 189.761719 184.191406 190.910156 184.304688 C 192.058594 184.417969 193.199219 184.585938 194.332031 184.8125 C 195.464844 185.039062 196.585938 185.320312 197.6875 185.652344 C 198.792969 185.988281 199.878906 186.378906 200.945312 186.820312 C 202.011719 187.261719 203.054688 187.753906 204.074219 188.296875 C 205.09375 188.84375 206.082031 189.433594 207.042969 190.078125 C 208 190.71875 208.925781 191.40625 209.820312 192.136719 C 210.710938 192.871094 211.566406 193.644531 212.382812 194.460938 C 213.199219 195.277344 213.972656 196.132812 214.707031 197.023438 C 215.4375 197.917969 216.125 198.84375 216.765625 199.804688 C 217.410156 200.761719 218 201.753906 218.546875 202.769531 C 219.089844 203.789062 219.582031 204.832031 220.023438 205.898438 C 220.46875 206.964844 220.855469 208.050781 221.191406 209.15625 C 221.527344 210.261719 221.804688 211.378906 222.03125 212.511719 C 222.257812 213.644531 222.425781 214.785156 222.539062 215.933594 C 222.652344 217.082031 222.707031 218.234375 222.707031 219.386719 L 222.707031 365.046875 C 225.402344 364.507812 228.085938 363.902344 230.753906 363.238281 C 233.421875 362.574219 236.070312 361.847656 238.703125 361.0625 C 241.339844 360.273438 243.953125 359.425781 246.546875 358.519531 C 249.144531 357.613281 251.71875 356.648438 254.269531 355.621094 C 256.816406 354.597656 259.34375 353.511719 261.84375 352.371094 C 264.347656 351.230469 266.820312 350.03125 269.265625 348.777344 C 271.710938 347.519531 274.125 346.210938 276.511719 344.84375 C 278.898438 343.476562 281.25 342.054688 283.570312 340.582031 C 285.890625 339.105469 288.175781 337.578125 290.425781 336 C 292.675781 334.421875 294.886719 332.789062 297.0625 331.109375 C 299.238281 329.425781 301.371094 327.695312 303.46875 325.917969 C 305.5625 324.136719 307.617188 322.308594 309.628906 320.4375 C 311.640625 318.5625 313.605469 316.644531 315.53125 314.679688 C 317.453125 312.714844 319.328125 310.707031 321.160156 308.65625 C 322.992188 306.605469 324.773438 304.511719 326.507812 302.378906 C 328.242188 300.246094 329.925781 298.074219 331.5625 295.863281 C 333.195312 293.65625 334.78125 291.40625 336.3125 289.125 C 337.84375 286.839844 339.320312 284.523438 340.746094 282.171875 C 342.167969 279.824219 343.539062 277.441406 344.855469 275.027344 C 346.167969 272.613281 347.429688 270.167969 348.632812 267.695312 C 349.835938 265.222656 350.980469 262.726562 352.066406 260.203125 C 353.15625 257.675781 354.183594 255.128906 355.15625 252.554688 C 356.125 249.984375 357.039062 247.390625 357.890625 244.777344 C 358.742188 242.164062 359.53125 239.53125 360.261719 236.882812 C 360.992188 234.230469 361.660156 231.566406 362.269531 228.882812 C 362.875 226.203125 363.421875 223.507812 363.90625 220.804688 C 364.390625 218.097656 364.8125 215.382812 365.171875 212.65625 C 365.53125 209.929688 365.828125 207.199219 366.058594 204.457031 C 366.292969 201.71875 366.464844 198.976562 366.570312 196.230469 C 366.675781 193.480469 366.722656 190.734375 366.703125 187.984375 C 366.683594 185.234375 366.601562 182.488281 366.457031 179.742188 C 366.308594 177 366.101562 174.257812 365.828125 171.523438 C 365.558594 168.785156 365.222656 166.058594 364.828125 163.339844 C 364.429688 160.617188 363.96875 157.910156 363.449219 155.210938 C 362.925781 152.511719 362.34375 149.824219 361.699219 147.152344 C 361.054688 144.480469 360.347656 141.824219 359.582031 139.183594 C 358.8125 136.542969 357.984375 133.921875 357.097656 131.320312 C 356.210938 128.71875 355.261719 126.140625 354.257812 123.582031 C 353.25 121.023438 352.183594 118.488281 351.0625 115.980469 C 349.9375 113.472656 348.757812 110.988281 347.519531 108.535156 C 346.285156 106.078125 344.992188 103.652344 343.640625 101.257812 C 342.292969 98.863281 340.890625 96.5 339.433594 94.167969 C 337.976562 91.835938 336.464844 89.542969 334.902344 87.28125 C 333.339844 85.019531 331.726562 82.792969 330.058594 80.605469 C 328.394531 78.417969 326.679688 76.269531 324.914062 74.164062 C 323.152344 72.054688 321.339844 69.988281 319.480469 67.960938 C 317.621094 65.9375 315.71875 63.957031 313.765625 62.019531 C 311.816406 60.082031 309.824219 58.191406 307.785156 56.34375 C 305.75 54.496094 303.667969 52.699219 301.550781 50.949219 C 299.429688 49.199219 297.269531 47.5 295.074219 45.847656 C 292.875 44.195312 290.640625 42.597656 288.367188 41.050781 C 286.097656 39.5 283.789062 38.007812 281.449219 36.5625 C 279.109375 35.121094 276.738281 33.734375 274.332031 32.402344 C 271.929688 31.066406 269.496094 29.792969 267.03125 28.570312 C 264.566406 27.347656 262.078125 26.183594 259.5625 25.078125 C 257.046875 23.972656 254.503906 22.925781 251.941406 21.933594 C 249.375 20.945312 246.789062 20.015625 244.179688 19.144531 C 241.574219 18.273438 238.949219 17.460938 236.304688 16.710938 C 233.65625 15.960938 230.996094 15.273438 228.320312 14.644531 C 225.644531 14.019531 222.953125 13.453125 220.253906 12.949219 C 217.550781 12.445312 214.835938 12.003906 212.113281 11.625 C 209.390625 11.246094 206.660156 10.929688 203.925781 10.675781 C 201.1875 10.421875 198.445312 10.230469 195.699219 10.105469 C 192.953125 9.976562 190.203125 9.910156 187.457031 9.910156 Z M 187.457031 9.910156 "/></g><path style=" stroke:none;fill-rule:nonzero;fill:#ffffff;fill-opacity:1;" d="M 228.160156 121.902344 C 228.160156 123.238281 228.097656 124.566406 227.964844 125.894531 C 227.835938 127.21875 227.640625 128.539062 227.378906 129.84375 C 227.121094 131.152344 226.796875 132.445312 226.410156 133.71875 C 226.023438 134.996094 225.574219 136.25 225.0625 137.480469 C 224.554688 138.714844 223.984375 139.917969 223.355469 141.09375 C 222.726562 142.269531 222.042969 143.410156 221.300781 144.519531 C 220.5625 145.628906 219.769531 146.695312 218.921875 147.726562 C 218.074219 148.757812 217.183594 149.746094 216.238281 150.6875 C 215.296875 151.628906 214.308594 152.523438 213.28125 153.371094 C 212.25 154.214844 211.179688 155.007812 210.070312 155.75 C 208.960938 156.488281 207.820312 157.175781 206.644531 157.804688 C 205.46875 158.429688 204.265625 159 203.035156 159.511719 C 201.800781 160.019531 200.546875 160.46875 199.273438 160.855469 C 197.996094 161.242188 196.703125 161.566406 195.398438 161.828125 C 194.089844 162.085938 192.773438 162.28125 191.445312 162.414062 C 190.117188 162.542969 188.789062 162.609375 187.457031 162.609375 C 186.121094 162.609375 184.792969 162.542969 183.464844 162.414062 C 182.140625 162.28125 180.820312 162.085938 179.515625 161.828125 C 178.207031 161.566406 176.914062 161.242188 175.640625 160.855469 C 174.363281 160.46875 173.109375 160.019531 171.878906 159.511719 C 170.648438 159 169.441406 158.429688 168.265625 157.804688 C 167.089844 157.175781 165.949219 156.488281 164.839844 155.75 C 163.734375 155.007812 162.664062 154.214844 161.632812 153.371094 C 160.601562 152.523438 159.617188 151.628906 158.671875 150.6875 C 157.730469 149.746094 156.835938 148.757812 155.988281 147.726562 C 155.144531 146.695312 154.351562 145.628906 153.609375 144.519531 C 152.871094 143.410156 152.183594 142.269531 151.554688 141.09375 C 150.929688 139.917969 150.359375 138.714844 149.847656 137.480469 C 149.339844 136.25 148.890625 134.996094 148.503906 133.71875 C 148.117188 132.445312 147.792969 131.152344 147.53125 129.84375 C 147.273438 128.539062 147.078125 127.21875 146.945312 125.894531 C 146.816406 124.566406 146.75 123.238281 146.75 121.902344 C 146.75 120.570312 146.816406 119.242188 146.945312 117.914062 C 147.078125 116.585938 147.273438 115.269531 147.53125 113.960938 C 147.792969 112.65625 148.117188 111.363281 148.503906 110.085938 C 148.890625 108.8125 149.339844 107.558594 149.847656 106.328125 C 150.359375 105.09375 150.929688 103.890625 151.554688 102.714844 C 152.183594 101.539062 152.871094 100.398438 153.609375 99.289062 C 154.351562 98.179688 155.144531 97.109375 155.988281 96.082031 C 156.835938 95.050781 157.730469 94.0625 158.671875 93.121094 C 159.617188 92.179688 160.601562 91.285156 161.632812 90.4375 C 162.664062 89.59375 163.734375 88.800781 164.839844 88.058594 C 165.949219 87.316406 167.089844 86.632812 168.265625 86.003906 C 169.441406 85.375 170.648438 84.808594 171.878906 84.296875 C 173.109375 83.785156 174.363281 83.335938 175.640625 82.949219 C 176.914062 82.5625 178.207031 82.238281 179.515625 81.980469 C 180.820312 81.71875 182.140625 81.523438 183.464844 81.394531 C 184.792969 81.261719 186.121094 81.199219 187.457031 81.199219 C 188.789062 81.199219 190.117188 81.261719 191.445312 81.394531 C 192.773438 81.523438 194.089844 81.71875 195.398438 81.980469 C 196.703125 82.238281 197.996094 82.5625 199.273438 82.949219 C 200.546875 83.335938 201.800781 83.785156 203.035156 84.296875 C 204.265625 84.808594 205.46875 85.375 206.644531 86.003906 C 207.820312 86.632812 208.960938 87.316406 210.070312 88.058594 C 211.179688 88.800781 212.25 89.59375 213.28125 90.4375 C 214.308594 91.285156 215.296875 92.179688 216.238281 93.121094 C 217.183594 94.0625 218.078125 95.050781 218.921875 96.082031 C 219.769531 97.109375 220.5625 98.179688 221.300781 99.289062 C 222.042969 100.398438 222.726562 101.539062 223.355469 102.714844 C 223.984375 103.890625 224.554688 105.09375 225.0625 106.328125 C 225.574219 107.558594 226.023438 108.8125 226.410156 110.085938 C 226.796875 111.363281 227.121094 112.65625 227.378906 113.960938 C 227.640625 115.269531 227.835938 116.585938 227.964844 117.914062 C 228.097656 119.242188 228.160156 120.570312 228.160156 121.902344 Z M 228.160156 121.902344 "/></g></svg>