<svg xmlns="http://www.w3.org/2000/svg" xmlns:xlink="http://www.w3.org/1999/xlink" width="500" zoomAndPan="magnify" viewBox="0 0 375 374.999991" height="500" preserveAspectRatio="xMidYMid meet" version="1.2"><g id="73cae28612"><path style=" stroke:none;fill-rule:nonzero;fill:#b076ce;fill-opacity:1;" d="M 137.863281 179.316406 C 137.390625 178.84375 136.871094 178.417969 136.3125 178.046875 C 135.753906 177.671875 135.167969 177.359375 134.546875 177.101562 C 133.925781 176.84375 133.285156 176.652344 132.628906 176.519531 C 131.96875 176.386719 131.304688 176.324219 130.632812 176.324219 C 129.960938 176.324219 129.296875 176.386719 128.636719 176.519531 C 127.980469 176.652344 127.339844 176.84375 126.71875 177.101562 C 126.097656 177.359375 125.507812 177.671875 124.949219 178.046875 C 124.390625 178.417969 123.875 178.84375 123.402344 179.316406 C 122.191406 180.496094 121.042969 181.730469 119.957031 183.023438 C 118.871094 184.3125 117.851562 185.65625 116.898438 187.050781 C 115.941406 188.441406 115.058594 189.878906 114.25 191.359375 C 113.4375 192.839844 112.699219 194.355469 112.039062 195.90625 C 111.378906 197.460938 110.796875 199.042969 110.292969 200.652344 C 109.789062 202.265625 109.363281 203.898438 109.019531 205.550781 C 108.679688 207.203125 108.417969 208.867188 108.238281 210.546875 C 108.0625 212.226562 107.96875 213.910156 107.957031 215.597656 C 107.945312 217.285156 108.019531 218.96875 108.175781 220.648438 C 108.332031 222.328125 108.570312 224 108.890625 225.65625 C 109.210938 227.3125 109.613281 228.949219 110.097656 230.566406 C 110.582031 232.183594 111.144531 233.773438 111.785156 235.335938 C 112.425781 236.898438 113.140625 238.421875 113.933594 239.914062 C 114.726562 241.40625 115.589844 242.851562 116.523438 244.257812 C 117.460938 245.660156 118.464844 247.015625 119.53125 248.324219 C 120.601562 249.628906 121.734375 250.878906 122.929688 252.070312 C 124.121094 253.265625 125.371094 254.398438 126.675781 255.464844 C 127.984375 256.535156 129.339844 257.539062 130.742188 258.472656 C 132.148438 259.410156 133.597656 260.273438 135.085938 261.066406 C 136.578125 261.855469 138.105469 262.574219 139.664062 263.214844 C 141.226562 263.855469 142.816406 264.417969 144.433594 264.898438 C 146.050781 265.382812 147.6875 265.785156 149.34375 266.105469 C 151.003906 266.429688 152.671875 266.667969 154.351562 266.820312 C 156.035156 266.976562 157.71875 267.050781 159.40625 267.039062 C 161.09375 267.027344 162.777344 266.933594 164.457031 266.753906 C 166.132812 266.578125 167.800781 266.316406 169.453125 265.972656 C 171.105469 265.632812 172.738281 265.207031 174.347656 264.703125 C 175.957031 264.199219 177.539062 263.613281 179.09375 262.953125 C 180.644531 262.292969 182.164062 261.554688 183.644531 260.746094 C 185.121094 259.933594 186.558594 259.050781 187.953125 258.097656 C 189.34375 257.140625 190.6875 256.121094 191.976562 255.035156 C 193.269531 253.949219 194.503906 252.800781 195.683594 251.589844 C 196.128906 251.109375 196.527344 250.59375 196.875 250.035156 C 197.222656 249.480469 197.511719 248.894531 197.75 248.28125 C 197.984375 247.667969 198.15625 247.039062 198.273438 246.390625 C 198.386719 245.746094 198.4375 245.09375 198.425781 244.4375 C 198.414062 243.78125 198.339844 243.132812 198.203125 242.492188 C 198.066406 241.847656 197.871094 241.226562 197.613281 240.621094 C 197.355469 240.015625 197.046875 239.445312 196.679688 238.898438 C 196.3125 238.355469 195.894531 237.851562 195.429688 237.386719 C 194.96875 236.921875 194.464844 236.507812 193.917969 236.140625 C 193.375 235.773438 192.800781 235.460938 192.195312 235.203125 C 191.59375 234.949219 190.96875 234.75 190.328125 234.613281 C 189.683594 234.480469 189.035156 234.40625 188.378906 234.394531 C 187.722656 234.382812 187.074219 234.433594 186.425781 234.546875 C 185.78125 234.660156 185.148438 234.835938 184.535156 235.070312 C 183.925781 235.304688 183.339844 235.597656 182.78125 235.945312 C 182.226562 236.292969 181.707031 236.6875 181.226562 237.136719 C 180.515625 237.847656 179.773438 238.523438 178.996094 239.160156 C 178.222656 239.796875 177.417969 240.394531 176.582031 240.953125 C 175.746094 241.511719 174.886719 242.03125 174 242.503906 C 173.113281 242.976562 172.207031 243.40625 171.277344 243.792969 C 170.351562 244.179688 169.40625 244.515625 168.445312 244.808594 C 167.484375 245.101562 166.511719 245.34375 165.523438 245.542969 C 164.539062 245.738281 163.546875 245.886719 162.546875 245.984375 C 161.546875 246.082031 160.546875 246.132812 159.539062 246.132812 C 158.535156 246.132812 157.535156 246.085938 156.535156 245.988281 C 155.535156 245.890625 154.539062 245.742188 153.554688 245.546875 C 152.570312 245.351562 151.597656 245.105469 150.636719 244.816406 C 149.671875 244.523438 148.726562 244.1875 147.800781 243.800781 C 146.871094 243.417969 145.964844 242.988281 145.078125 242.515625 C 144.191406 242.042969 143.332031 241.527344 142.496094 240.96875 C 141.660156 240.410156 140.855469 239.8125 140.078125 239.175781 C 139.300781 238.539062 138.558594 237.863281 137.847656 237.152344 C 137.136719 236.441406 136.460938 235.699219 135.824219 234.921875 C 135.1875 234.144531 134.589844 233.339844 134.03125 232.503906 C 133.472656 231.667969 132.957031 230.808594 132.484375 229.921875 C 132.011719 229.035156 131.582031 228.128906 131.199219 227.199219 C 130.8125 226.273438 130.476562 225.328125 130.183594 224.363281 C 129.894531 223.402344 129.648438 222.429688 129.453125 221.445312 C 129.257812 220.460938 129.109375 219.464844 129.011719 218.464844 C 128.914062 217.464844 128.867188 216.464844 128.867188 215.460938 C 128.867188 214.453125 128.914062 213.453125 129.015625 212.453125 C 129.113281 211.453125 129.261719 210.460938 129.457031 209.476562 C 129.65625 208.488281 129.898438 207.515625 130.191406 206.554688 C 130.484375 205.59375 130.820312 204.648438 131.207031 203.722656 C 131.59375 202.792969 132.019531 201.886719 132.496094 201 C 132.96875 200.113281 133.484375 199.253906 134.046875 198.417969 C 134.605469 197.582031 135.203125 196.777344 135.839844 196 C 136.476562 195.226562 137.152344 194.484375 137.863281 193.773438 C 138.335938 193.296875 138.761719 192.78125 139.132812 192.222656 C 139.507812 191.664062 139.820312 191.078125 140.078125 190.457031 C 140.332031 189.835938 140.527344 189.195312 140.660156 188.539062 C 140.789062 187.882812 140.855469 187.214844 140.855469 186.546875 C 140.855469 185.875 140.789062 185.210938 140.660156 184.550781 C 140.527344 183.894531 140.332031 183.253906 140.078125 182.632812 C 139.820312 182.015625 139.507812 181.425781 139.132812 180.867188 C 138.761719 180.308594 138.335938 179.792969 137.863281 179.316406 Z M 137.863281 179.316406 "/><path style=" stroke:none;fill-rule:nonzero;fill:#b076ce;fill-opacity:1;" d="M 188.046875 135.1875 C 188.675781 135.421875 189.320312 135.589844 189.984375 135.695312 C 190.648438 135.796875 191.316406 135.835938 191.984375 135.8125 C 192.65625 135.785156 193.316406 135.695312 193.96875 135.535156 C 194.625 135.378906 195.253906 135.160156 195.863281 134.882812 C 196.472656 134.601562 197.050781 134.261719 197.59375 133.867188 C 198.136719 133.472656 198.636719 133.03125 199.09375 132.539062 C 199.546875 132.046875 199.953125 131.511719 200.300781 130.941406 C 200.652344 130.367188 200.945312 129.769531 201.179688 129.136719 C 201.410156 128.507812 201.582031 127.863281 201.6875 127.199219 C 201.792969 126.535156 201.832031 125.871094 201.808594 125.199219 C 201.78125 124.527344 201.691406 123.867188 201.535156 123.214844 C 201.378906 122.5625 201.160156 121.929688 200.882812 121.320312 C 200.601562 120.710938 200.265625 120.132812 199.871094 119.589844 C 199.476562 119.046875 199.035156 118.546875 198.542969 118.089844 C 198.050781 117.632812 197.515625 117.226562 196.945312 116.875 C 196.375 116.523438 195.773438 116.230469 195.144531 115.996094 C 183.648438 111.792969 171.785156 109.71875 159.546875 109.773438 C 157.816406 109.773438 156.085938 109.816406 154.359375 109.898438 C 152.632812 109.984375 150.90625 110.113281 149.1875 110.28125 C 147.464844 110.449219 145.75 110.664062 144.039062 110.917969 C 142.328125 111.171875 140.625 111.464844 138.929688 111.804688 C 137.230469 112.140625 135.542969 112.519531 133.867188 112.941406 C 132.1875 113.359375 130.523438 113.820312 128.867188 114.324219 C 127.210938 114.824219 125.570312 115.367188 123.941406 115.949219 C 122.3125 116.53125 120.699219 117.15625 119.101562 117.816406 C 117.503906 118.480469 115.925781 119.179688 114.359375 119.917969 C 112.796875 120.660156 111.253906 121.4375 109.726562 122.25 C 108.203125 123.066406 106.699219 123.917969 105.214844 124.808594 C 103.730469 125.699219 102.269531 126.621094 100.832031 127.582031 C 99.394531 128.542969 97.980469 129.539062 96.589844 130.570312 C 95.203125 131.601562 93.839844 132.664062 92.5 133.761719 C 91.164062 134.859375 89.855469 135.988281 88.574219 137.148438 C 87.292969 138.3125 86.039062 139.503906 84.816406 140.726562 C 83.59375 141.949219 82.402344 143.203125 81.242188 144.484375 C 80.078125 145.765625 78.949219 147.074219 77.851562 148.410156 C 76.753906 149.746094 75.691406 151.109375 74.660156 152.5 C 73.628906 153.890625 72.636719 155.300781 71.675781 156.742188 C 70.714844 158.179688 69.789062 159.640625 68.898438 161.125 C 68.011719 162.605469 67.15625 164.109375 66.34375 165.636719 C 65.527344 167.160156 64.75 168.707031 64.011719 170.269531 C 63.269531 171.832031 62.570312 173.414062 61.90625 175.011719 C 61.246094 176.609375 60.625 178.222656 60.042969 179.851562 C 59.457031 181.480469 58.917969 183.121094 58.414062 184.777344 C 57.914062 186.433594 57.449219 188.097656 57.03125 189.777344 C 56.609375 191.453125 56.230469 193.140625 55.894531 194.835938 C 55.558594 196.535156 55.261719 198.238281 55.007812 199.949219 C 54.753906 201.660156 54.542969 203.375 54.371094 205.097656 C 54.203125 206.816406 54.074219 208.542969 53.992188 210.269531 C 53.90625 211.996094 53.863281 213.726562 53.863281 215.453125 C 53.863281 217.183594 53.90625 218.914062 53.992188 220.640625 C 54.074219 222.367188 54.203125 224.09375 54.371094 225.8125 C 54.542969 227.535156 54.753906 229.25 55.007812 230.960938 C 55.261719 232.671875 55.558594 234.375 55.894531 236.070312 C 56.230469 237.769531 56.609375 239.457031 57.03125 241.132812 C 57.449219 242.8125 57.914062 244.476562 58.414062 246.132812 C 58.917969 247.789062 59.457031 249.429688 60.042969 251.058594 C 60.625 252.6875 61.246094 254.300781 61.90625 255.898438 C 62.570312 257.496094 63.269531 259.074219 64.011719 260.640625 C 64.75 262.203125 65.527344 263.746094 66.34375 265.273438 C 67.15625 266.796875 68.011719 268.300781 68.898438 269.785156 C 69.789062 271.269531 70.714844 272.730469 71.675781 274.167969 C 72.636719 275.605469 73.628906 277.019531 74.660156 278.410156 C 75.691406 279.796875 76.753906 281.160156 77.851562 282.5 C 78.949219 283.835938 80.078125 285.144531 81.242188 286.425781 C 82.402344 287.707031 83.59375 288.960938 84.816406 290.183594 C 86.039062 291.40625 87.292969 292.597656 88.574219 293.757812 C 89.855469 294.921875 91.164062 296.050781 92.5 297.148438 C 93.839844 298.246094 95.203125 299.308594 96.589844 300.339844 C 97.980469 301.371094 99.394531 302.363281 100.832031 303.324219 C 102.269531 304.285156 103.730469 305.210938 105.214844 306.101562 C 106.699219 306.988281 108.203125 307.84375 109.726562 308.65625 C 111.253906 309.472656 112.796875 310.25 114.359375 310.988281 C 115.925781 311.730469 117.503906 312.429688 119.101562 313.089844 C 120.699219 313.753906 122.3125 314.375 123.941406 314.957031 C 125.570312 315.542969 127.210938 316.082031 128.867188 316.585938 C 130.523438 317.085938 132.1875 317.550781 133.867188 317.96875 C 135.542969 318.390625 137.230469 318.769531 138.929688 319.105469 C 140.625 319.441406 142.328125 319.738281 144.039062 319.992188 C 145.75 320.246094 147.464844 320.457031 149.1875 320.628906 C 150.90625 320.796875 152.632812 320.925781 154.359375 321.007812 C 156.085938 321.09375 157.816406 321.136719 159.546875 321.136719 C 161.273438 321.136719 163.003906 321.09375 164.730469 321.007812 C 166.457031 320.925781 168.183594 320.796875 169.902344 320.628906 C 171.625 320.457031 173.339844 320.246094 175.050781 319.992188 C 176.761719 319.738281 178.464844 319.441406 180.164062 319.105469 C 181.859375 318.769531 183.546875 318.390625 185.222656 317.96875 C 186.902344 317.546875 188.566406 317.085938 190.222656 316.585938 C 191.878906 316.082031 193.519531 315.542969 195.148438 314.957031 C 196.777344 314.375 198.390625 313.753906 199.988281 313.089844 C 201.585938 312.429688 203.167969 311.730469 204.730469 310.988281 C 206.292969 310.25 207.839844 309.472656 209.363281 308.65625 C 210.890625 307.84375 212.394531 306.988281 213.875 306.101562 C 215.359375 305.210938 216.820312 304.285156 218.257812 303.324219 C 219.695312 302.363281 221.109375 301.367188 222.5 300.339844 C 223.890625 299.308594 225.253906 298.246094 226.589844 297.148438 C 227.925781 296.050781 229.234375 294.921875 230.515625 293.757812 C 231.796875 292.597656 233.050781 291.40625 234.273438 290.183594 C 235.496094 288.960938 236.6875 287.707031 237.851562 286.425781 C 239.011719 285.144531 240.140625 283.835938 241.238281 282.5 C 242.335938 281.160156 243.398438 279.796875 244.429688 278.410156 C 245.460938 277.019531 246.457031 275.605469 247.417969 274.167969 C 248.378906 272.730469 249.300781 271.269531 250.191406 269.785156 C 251.082031 268.300781 251.933594 266.796875 252.75 265.273438 C 253.5625 263.746094 254.339844 262.203125 255.082031 260.640625 C 255.820312 259.074219 256.519531 257.496094 257.183594 255.898438 C 257.84375 254.300781 258.464844 252.6875 259.050781 251.058594 C 259.632812 249.429688 260.175781 247.789062 260.675781 246.132812 C 261.179688 244.476562 261.640625 242.8125 262.058594 241.132812 C 262.480469 239.457031 262.859375 237.769531 263.195312 236.070312 C 263.535156 234.375 263.828125 232.671875 264.082031 230.960938 C 264.335938 229.25 264.546875 227.535156 264.71875 225.8125 C 264.886719 224.09375 265.015625 222.367188 265.101562 220.640625 C 265.183594 218.914062 265.226562 217.183594 265.226562 215.453125 C 265.277344 203.21875 263.203125 191.355469 259.003906 179.863281 C 258.769531 179.234375 258.476562 178.632812 258.125 178.0625 C 257.773438 177.492188 257.367188 176.957031 256.910156 176.464844 C 256.453125 175.972656 255.953125 175.53125 255.410156 175.136719 C 254.867188 174.746094 254.289062 174.40625 253.679688 174.128906 C 253.070312 173.847656 252.4375 173.628906 251.785156 173.472656 C 251.132812 173.316406 250.472656 173.226562 249.800781 173.203125 C 249.128906 173.175781 248.464844 173.214844 247.800781 173.320312 C 247.136719 173.425781 246.492188 173.597656 245.863281 173.828125 C 245.230469 174.0625 244.632812 174.355469 244.058594 174.707031 C 243.488281 175.054688 242.953125 175.460938 242.460938 175.917969 C 241.96875 176.371094 241.527344 176.871094 241.132812 177.414062 C 240.738281 177.957031 240.398438 178.535156 240.117188 179.144531 C 239.839844 179.753906 239.621094 180.386719 239.460938 181.039062 C 239.304688 181.691406 239.214844 182.351562 239.1875 183.023438 C 239.160156 183.695312 239.203125 184.359375 239.304688 185.023438 C 239.410156 185.6875 239.578125 186.332031 239.8125 186.960938 C 243.167969 196.164062 244.824219 205.660156 244.773438 215.453125 C 244.773438 216.847656 244.738281 218.242188 244.671875 219.636719 C 244.601562 221.03125 244.5 222.421875 244.363281 223.808594 C 244.226562 225.195312 244.054688 226.582031 243.851562 227.960938 C 243.644531 229.339844 243.40625 230.714844 243.136719 232.082031 C 242.863281 233.449219 242.558594 234.808594 242.21875 236.164062 C 241.878906 237.515625 241.507812 238.859375 241.101562 240.195312 C 240.699219 241.53125 240.261719 242.851562 239.789062 244.167969 C 239.320312 245.480469 238.820312 246.78125 238.285156 248.070312 C 237.75 249.359375 237.1875 250.632812 236.589844 251.894531 C 235.992188 253.15625 235.367188 254.398438 234.710938 255.628906 C 234.050781 256.859375 233.363281 258.074219 232.648438 259.269531 C 231.929688 260.464844 231.183594 261.644531 230.410156 262.804688 C 229.632812 263.964844 228.832031 265.105469 228 266.222656 C 227.167969 267.34375 226.3125 268.445312 225.425781 269.523438 C 224.542969 270.601562 223.632812 271.65625 222.695312 272.691406 C 221.757812 273.722656 220.796875 274.734375 219.808594 275.71875 C 218.824219 276.707031 217.8125 277.667969 216.78125 278.605469 C 215.746094 279.539062 214.691406 280.453125 213.613281 281.335938 C 212.535156 282.222656 211.433594 283.078125 210.316406 283.910156 C 209.195312 284.742188 208.054688 285.542969 206.894531 286.316406 C 205.734375 287.09375 204.558594 287.839844 203.359375 288.554688 C 202.164062 289.273438 200.953125 289.960938 199.722656 290.617188 C 198.492188 291.277344 197.246094 291.902344 195.984375 292.5 C 194.722656 293.09375 193.449219 293.660156 192.160156 294.195312 C 190.871094 294.726562 189.570312 295.230469 188.257812 295.699219 C 186.945312 296.167969 185.621094 296.605469 184.285156 297.011719 C 182.949219 297.417969 181.605469 297.789062 180.253906 298.128906 C 178.902344 298.464844 177.539062 298.773438 176.171875 299.042969 C 174.804688 299.316406 173.429688 299.554688 172.050781 299.757812 C 170.671875 299.964844 169.289062 300.132812 167.898438 300.269531 C 166.511719 300.40625 165.121094 300.511719 163.726562 300.578125 C 162.335938 300.648438 160.941406 300.683594 159.546875 300.683594 C 158.152344 300.683594 156.757812 300.648438 155.363281 300.578125 C 153.96875 300.511719 152.578125 300.40625 151.191406 300.269531 C 149.804688 300.132812 148.417969 299.964844 147.039062 299.757812 C 145.660156 299.554688 144.285156 299.316406 142.917969 299.042969 C 141.550781 298.773438 140.191406 298.464844 138.835938 298.128906 C 137.484375 297.789062 136.140625 297.417969 134.804688 297.011719 C 133.46875 296.605469 132.148438 296.167969 130.832031 295.699219 C 129.519531 295.230469 128.21875 294.726562 126.929688 294.195312 C 125.640625 293.660156 124.367188 293.09375 123.105469 292.5 C 121.84375 291.902344 120.601562 291.277344 119.371094 290.617188 C 118.140625 289.960938 116.925781 289.273438 115.730469 288.554688 C 114.535156 287.839844 113.355469 287.09375 112.195312 286.316406 C 111.035156 285.542969 109.894531 284.742188 108.777344 283.910156 C 107.65625 283.078125 106.554688 282.222656 105.476562 281.335938 C 104.398438 280.453125 103.34375 279.539062 102.308594 278.605469 C 101.277344 277.667969 100.265625 276.707031 99.28125 275.71875 C 98.292969 274.734375 97.332031 273.722656 96.394531 272.691406 C 95.460938 271.65625 94.546875 270.601562 93.664062 269.523438 C 92.777344 268.445312 91.921875 267.34375 91.089844 266.222656 C 90.257812 265.105469 89.457031 263.964844 88.679688 262.804688 C 87.90625 261.644531 87.160156 260.464844 86.445312 259.269531 C 85.726562 258.074219 85.039062 256.859375 84.382812 255.628906 C 83.722656 254.398438 83.097656 253.15625 82.5 251.894531 C 81.90625 250.632812 81.339844 249.359375 80.804688 248.070312 C 80.273438 246.78125 79.769531 245.480469 79.300781 244.167969 C 78.832031 242.851562 78.394531 241.53125 77.988281 240.195312 C 77.582031 238.859375 77.210938 237.515625 76.871094 236.164062 C 76.535156 234.808594 76.226562 233.449219 75.957031 232.082031 C 75.683594 230.714844 75.445312 229.339844 75.242188 227.960938 C 75.035156 226.582031 74.867188 225.195312 74.730469 223.808594 C 74.59375 222.421875 74.488281 221.03125 74.421875 219.636719 C 74.351562 218.242188 74.316406 216.847656 74.316406 215.453125 C 74.316406 214.058594 74.351562 212.664062 74.421875 211.273438 C 74.488281 209.878906 74.59375 208.488281 74.730469 207.101562 C 74.867188 205.710938 75.035156 204.328125 75.242188 202.949219 C 75.445312 201.570312 75.683594 200.195312 75.957031 198.828125 C 76.226562 197.460938 76.535156 196.097656 76.871094 194.746094 C 77.210938 193.394531 77.582031 192.050781 77.988281 190.714844 C 78.394531 189.378906 78.832031 188.054688 79.300781 186.742188 C 79.769531 185.429688 80.273438 184.128906 80.804688 182.839844 C 81.339844 181.550781 81.90625 180.277344 82.5 179.015625 C 83.097656 177.753906 83.722656 176.507812 84.382812 175.277344 C 85.039062 174.046875 85.726562 172.835938 86.445312 171.640625 C 87.160156 170.441406 87.90625 169.265625 88.679688 168.105469 C 89.457031 166.945312 90.257812 165.804688 91.089844 164.683594 C 91.921875 163.5625 92.777344 162.464844 93.664062 161.386719 C 94.546875 160.308594 95.460938 159.253906 96.394531 158.21875 C 97.332031 157.1875 98.292969 156.175781 99.28125 155.191406 C 100.265625 154.203125 101.277344 153.242188 102.308594 152.304688 C 103.34375 151.367188 104.398438 150.457031 105.476562 149.574219 C 106.554688 148.6875 107.65625 147.832031 108.777344 147 C 109.894531 146.167969 111.035156 145.367188 112.195312 144.589844 C 113.355469 143.816406 114.535156 143.070312 115.730469 142.351562 C 116.925781 141.636719 118.140625 140.949219 119.371094 140.289062 C 120.601562 139.632812 121.84375 139.007812 123.105469 138.410156 C 124.367188 137.8125 125.640625 137.25 126.929688 136.714844 C 128.21875 136.179688 129.519531 135.679688 130.832031 135.210938 C 132.148438 134.738281 133.46875 134.300781 134.804688 133.898438 C 136.140625 133.492188 137.484375 133.121094 138.835938 132.78125 C 140.191406 132.441406 141.550781 132.136719 142.917969 131.863281 C 144.285156 131.59375 145.660156 131.355469 147.039062 131.148438 C 148.417969 130.945312 149.804688 130.773438 151.191406 130.636719 C 152.578125 130.5 153.96875 130.398438 155.363281 130.328125 C 156.757812 130.261719 158.152344 130.226562 159.546875 130.226562 C 169.34375 130.175781 178.84375 131.828125 188.046875 135.1875 Z M 188.046875 135.1875 "/><path style=" stroke:none;fill-rule:nonzero;fill:#b076ce;fill-opacity:1;" d="M 152.316406 222.683594 C 152.800781 223.144531 153.320312 223.554688 153.882812 223.917969 C 154.445312 224.277344 155.035156 224.582031 155.652344 224.832031 C 156.273438 225.082031 156.910156 225.269531 157.566406 225.394531 C 158.222656 225.523438 158.882812 225.585938 159.550781 225.585938 C 160.21875 225.585938 160.878906 225.523438 161.535156 225.394531 C 162.1875 225.269531 162.828125 225.082031 163.445312 224.832031 C 164.066406 224.582031 164.65625 224.277344 165.214844 223.917969 C 165.777344 223.554688 166.296875 223.144531 166.78125 222.683594 L 261.386719 128.074219 L 304.234375 136.640625 C 305.0625 136.792969 305.890625 136.84375 306.730469 136.792969 C 307.566406 136.746094 308.386719 136.601562 309.191406 136.355469 C 309.992188 136.113281 310.757812 135.78125 311.480469 135.355469 C 312.203125 134.929688 312.867188 134.425781 313.472656 133.84375 L 371.316406 75.992188 C 371.972656 75.339844 372.527344 74.609375 372.984375 73.804688 C 373.441406 73 373.78125 72.148438 374.003906 71.25 C 374.230469 70.351562 374.332031 69.441406 374.308594 68.515625 C 374.285156 67.589844 374.140625 66.683594 373.871094 65.800781 C 373.605469 64.914062 373.222656 64.082031 372.726562 63.296875 C 372.234375 62.515625 371.644531 61.8125 370.957031 61.191406 C 370.273438 60.570312 369.519531 60.050781 368.691406 59.632812 C 367.867188 59.214844 367 58.917969 366.089844 58.734375 L 324.5625 50.433594 L 316.261719 8.90625 C 316.078125 7.996094 315.78125 7.128906 315.363281 6.304688 C 314.945312 5.476562 314.425781 4.722656 313.804688 4.035156 C 313.183594 3.351562 312.480469 2.761719 311.699219 2.265625 C 310.914062 1.769531 310.082031 1.390625 309.195312 1.121094 C 308.308594 0.859375 307.402344 0.71875 306.480469 0.699219 C 305.554688 0.679688 304.644531 0.78125 303.75 1.007812 C 302.851562 1.230469 302 1.570312 301.195312 2.023438 C 300.390625 2.476562 299.660156 3.027344 299 3.675781 L 241.148438 61.53125 C 240.550781 62.128906 240.039062 62.785156 239.605469 63.507812 C 239.171875 64.230469 238.832031 64.992188 238.589844 65.800781 C 238.347656 66.605469 238.203125 67.425781 238.164062 68.269531 C 238.121094 69.109375 238.183594 69.941406 238.351562 70.765625 L 246.917969 113.617188 L 152.316406 208.226562 C 151.84375 208.703125 151.421875 209.21875 151.046875 209.777344 C 150.675781 210.335938 150.359375 210.921875 150.105469 211.542969 C 149.847656 212.164062 149.652344 212.800781 149.523438 213.460938 C 149.390625 214.117188 149.328125 214.785156 149.328125 215.453125 C 149.328125 216.125 149.390625 216.789062 149.523438 217.449219 C 149.652344 218.105469 149.847656 218.746094 150.105469 219.367188 C 150.359375 219.984375 150.675781 220.574219 151.046875 221.132812 C 151.421875 221.691406 151.84375 222.207031 152.316406 222.683594 Z M 299.957031 31.65625 L 305.851562 61.125 C 306.046875 62.117188 306.382812 63.058594 306.859375 63.949219 C 307.335938 64.839844 307.933594 65.640625 308.644531 66.355469 C 309.359375 67.066406 310.160156 67.664062 311.050781 68.140625 C 311.941406 68.617188 312.882812 68.953125 313.875 69.148438 L 343.34375 75.042969 L 302.875 115.519531 L 266.710938 108.292969 L 259.484375 72.132812 Z M 299.957031 31.65625 "/><path style=" stroke:none;fill-rule:nonzero;fill:#b076ce;fill-opacity:1;" d="M 210.882812 63.695312 C 202.621094 60.867188 194.183594 58.742188 185.566406 57.320312 C 176.953125 55.898438 168.277344 55.199219 159.546875 55.226562 C 156.921875 55.226562 154.300781 55.292969 151.683594 55.421875 C 149.0625 55.550781 146.449219 55.742188 143.839844 56 C 141.230469 56.253906 138.628906 56.578125 136.035156 56.960938 C 133.441406 57.347656 130.859375 57.792969 128.285156 58.304688 C 125.714844 58.816406 123.15625 59.390625 120.613281 60.027344 C 118.070312 60.667969 115.542969 61.367188 113.035156 62.125 C 110.523438 62.886719 108.035156 63.710938 105.566406 64.59375 C 103.097656 65.476562 100.652344 66.421875 98.230469 67.421875 C 95.804688 68.425781 93.410156 69.488281 91.039062 70.609375 C 88.667969 71.730469 86.328125 72.910156 84.015625 74.148438 C 81.703125 75.382812 79.421875 76.675781 77.171875 78.023438 C 74.921875 79.371094 72.707031 80.773438 70.527344 82.230469 C 68.347656 83.6875 66.203125 85.195312 64.097656 86.757812 C 61.992188 88.320312 59.925781 89.933594 57.898438 91.597656 C 55.871094 93.261719 53.886719 94.972656 51.945312 96.734375 C 50 98.496094 48.101562 100.300781 46.246094 102.15625 C 44.394531 104.011719 42.585938 105.910156 40.824219 107.851562 C 39.0625 109.796875 37.351562 111.78125 35.6875 113.808594 C 34.023438 115.835938 32.410156 117.902344 30.851562 120.007812 C 29.289062 122.113281 27.777344 124.257812 26.320312 126.4375 C 24.863281 128.617188 23.460938 130.832031 22.113281 133.082031 C 20.765625 135.332031 19.472656 137.609375 18.238281 139.925781 C 17 142.238281 15.824219 144.578125 14.703125 146.949219 C 13.582031 149.320312 12.519531 151.714844 11.515625 154.136719 C 10.511719 156.5625 9.566406 159.007812 8.683594 161.476562 C 7.800781 163.945312 6.980469 166.433594 6.21875 168.941406 C 5.457031 171.453125 4.757812 173.980469 4.121094 176.523438 C 3.484375 179.066406 2.910156 181.625 2.398438 184.195312 C 1.886719 186.765625 1.4375 189.351562 1.050781 191.945312 C 0.667969 194.539062 0.347656 197.140625 0.0898438 199.75 C -0.167969 202.359375 -0.359375 204.972656 -0.488281 207.59375 C -0.617188 210.210938 -0.683594 212.832031 -0.683594 215.453125 C -0.683594 218.078125 -0.617188 220.699219 -0.488281 223.316406 C -0.359375 225.9375 -0.167969 228.550781 0.0898438 231.160156 C 0.347656 233.769531 0.667969 236.371094 1.050781 238.964844 C 1.4375 241.558594 1.886719 244.140625 2.398438 246.714844 C 2.910156 249.285156 3.484375 251.84375 4.121094 254.386719 C 4.757812 256.929688 5.457031 259.457031 6.21875 261.964844 C 6.980469 264.476562 7.800781 266.964844 8.683594 269.433594 C 9.566406 271.902344 10.511719 274.347656 11.515625 276.769531 C 12.519531 279.195312 13.582031 281.589844 14.703125 283.960938 C 15.824219 286.332031 17 288.671875 18.238281 290.984375 C 19.472656 293.296875 20.765625 295.578125 22.113281 297.828125 C 23.460938 300.078125 24.863281 302.292969 26.320312 304.472656 C 27.777344 306.652344 29.289062 308.796875 30.851562 310.902344 C 32.410156 313.007812 34.023438 315.074219 35.6875 317.101562 C 37.351562 319.128906 39.0625 321.113281 40.824219 323.054688 C 42.585938 325 44.394531 326.898438 46.246094 328.753906 C 48.101562 330.605469 50 332.414062 51.945312 334.175781 C 53.886719 335.9375 55.871094 337.648438 57.898438 339.3125 C 59.925781 340.976562 61.992188 342.589844 64.097656 344.148438 C 66.203125 345.710938 68.347656 347.222656 70.527344 348.679688 C 72.707031 350.136719 74.921875 351.539062 77.171875 352.886719 C 79.421875 354.234375 81.703125 355.527344 84.015625 356.761719 C 86.328125 358 88.667969 359.175781 91.039062 360.296875 C 93.410156 361.417969 95.804688 362.480469 98.230469 363.484375 C 100.652344 364.488281 103.097656 365.433594 105.566406 366.316406 C 108.035156 367.199219 110.523438 368.019531 113.035156 368.78125 C 115.542969 369.542969 118.070312 370.242188 120.613281 370.878906 C 123.15625 371.515625 125.714844 372.089844 128.285156 372.601562 C 130.859375 373.113281 133.441406 373.5625 136.035156 373.949219 C 138.628906 374.332031 141.230469 374.652344 143.839844 374.910156 C 146.449219 375.167969 149.0625 375.359375 151.683594 375.488281 C 154.300781 375.617188 156.921875 375.683594 159.546875 375.683594 C 162.167969 375.683594 164.789062 375.617188 167.40625 375.488281 C 170.027344 375.359375 172.640625 375.167969 175.25 374.910156 C 177.859375 374.652344 180.460938 374.332031 183.054688 373.949219 C 185.648438 373.5625 188.230469 373.113281 190.804688 372.601562 C 193.375 372.089844 195.933594 371.515625 198.476562 370.878906 C 201.019531 370.242188 203.546875 369.542969 206.058594 368.78125 C 208.566406 368.019531 211.054688 367.199219 213.523438 366.316406 C 215.992188 365.433594 218.4375 364.488281 220.863281 363.484375 C 223.285156 362.480469 225.679688 361.417969 228.050781 360.296875 C 230.421875 359.175781 232.761719 358 235.074219 356.761719 C 237.386719 355.527344 239.667969 354.234375 241.917969 352.886719 C 244.167969 351.539062 246.382812 350.136719 248.5625 348.679688 C 250.742188 347.222656 252.886719 345.710938 254.992188 344.148438 C 257.097656 342.589844 259.164062 340.976562 261.191406 339.3125 C 263.21875 337.648438 265.203125 335.9375 267.148438 334.175781 C 269.089844 332.414062 270.988281 330.605469 272.84375 328.753906 C 274.699219 326.898438 276.503906 325 278.265625 323.054688 C 280.027344 321.113281 281.738281 319.128906 283.402344 317.101562 C 285.066406 315.074219 286.679688 313.007812 288.242188 310.902344 C 289.804688 308.796875 291.3125 306.652344 292.769531 304.472656 C 294.226562 302.292969 295.628906 300.078125 296.976562 297.828125 C 298.324219 295.578125 299.617188 293.296875 300.851562 290.984375 C 302.089844 288.671875 303.269531 286.332031 304.390625 283.960938 C 305.511719 281.589844 306.574219 279.195312 307.574219 276.769531 C 308.578125 274.347656 309.523438 271.902344 310.40625 269.433594 C 311.289062 266.964844 312.113281 264.476562 312.875 261.964844 C 313.632812 259.457031 314.332031 256.929688 314.972656 254.386719 C 315.609375 251.84375 316.183594 249.285156 316.695312 246.714844 C 317.207031 244.140625 317.652344 241.558594 318.039062 238.964844 C 318.421875 236.371094 318.742188 233.769531 319 231.160156 C 319.257812 228.550781 319.449219 225.9375 319.578125 223.316406 C 319.707031 220.699219 319.773438 218.078125 319.773438 215.453125 C 319.800781 206.722656 319.101562 198.046875 317.679688 189.433594 C 316.257812 180.816406 314.132812 172.378906 311.304688 164.117188 C 311.082031 163.484375 310.804688 162.878906 310.464844 162.300781 C 310.125 161.71875 309.734375 161.179688 309.289062 160.675781 C 308.84375 160.175781 308.351562 159.722656 307.820312 159.316406 C 307.285156 158.910156 306.714844 158.5625 306.113281 158.269531 C 305.507812 157.972656 304.882812 157.742188 304.234375 157.574219 C 303.582031 157.402344 302.925781 157.296875 302.253906 157.257812 C 301.585938 157.214844 300.917969 157.242188 300.253906 157.332031 C 299.585938 157.421875 298.9375 157.578125 298.304688 157.796875 C 297.667969 158.015625 297.0625 158.292969 296.484375 158.632812 C 295.902344 158.972656 295.363281 159.363281 294.859375 159.808594 C 294.355469 160.253906 293.902344 160.742188 293.496094 161.277344 C 293.089844 161.8125 292.742188 162.378906 292.445312 162.980469 C 292.152344 163.585938 291.917969 164.210938 291.75 164.859375 C 291.578125 165.507812 291.472656 166.167969 291.429688 166.839844 C 291.390625 167.507812 291.414062 168.175781 291.503906 168.839844 C 291.59375 169.503906 291.75 170.15625 291.964844 170.789062 C 296.921875 185.265625 299.371094 200.152344 299.316406 215.453125 C 299.316406 217.742188 299.261719 220.027344 299.148438 222.3125 C 299.039062 224.597656 298.871094 226.878906 298.644531 229.15625 C 298.421875 231.429688 298.140625 233.699219 297.804688 235.964844 C 297.46875 238.226562 297.078125 240.480469 296.632812 242.722656 C 296.1875 244.964844 295.683594 247.199219 295.128906 249.417969 C 294.574219 251.636719 293.964844 253.839844 293.300781 256.027344 C 292.636719 258.21875 291.917969 260.390625 291.148438 262.542969 C 290.375 264.695312 289.554688 266.828125 288.679688 268.941406 C 287.804688 271.054688 286.875 273.148438 285.898438 275.214844 C 284.921875 277.28125 283.890625 279.324219 282.8125 281.34375 C 281.734375 283.359375 280.609375 285.351562 279.433594 287.3125 C 278.257812 289.273438 277.03125 291.207031 275.761719 293.109375 C 274.492188 295.011719 273.175781 296.878906 271.8125 298.71875 C 270.449219 300.554688 269.042969 302.355469 267.589844 304.125 C 266.140625 305.894531 264.644531 307.625 263.109375 309.320312 C 261.574219 311.015625 259.996094 312.671875 258.378906 314.289062 C 256.761719 315.90625 255.105469 317.484375 253.410156 319.019531 C 251.714844 320.554688 249.984375 322.050781 248.214844 323.5 C 246.449219 324.953125 244.644531 326.359375 242.808594 327.722656 C 240.96875 329.082031 239.101562 330.398438 237.199219 331.671875 C 235.296875 332.941406 233.363281 334.164062 231.402344 335.339844 C 229.441406 336.515625 227.449219 337.644531 225.433594 338.722656 C 223.417969 339.800781 221.375 340.828125 219.304688 341.808594 C 217.238281 342.785156 215.148438 343.710938 213.035156 344.585938 C 210.921875 345.464844 208.789062 346.285156 206.632812 347.054688 C 204.480469 347.828125 202.308594 348.542969 200.121094 349.207031 C 197.929688 349.871094 195.726562 350.484375 193.507812 351.039062 C 191.289062 351.59375 189.058594 352.09375 186.8125 352.542969 C 184.570312 352.988281 182.316406 353.378906 180.054688 353.714844 C 177.792969 354.050781 175.523438 354.328125 173.246094 354.554688 C 170.96875 354.777344 168.6875 354.945312 166.402344 355.058594 C 164.117188 355.171875 161.832031 355.226562 159.546875 355.226562 C 157.257812 355.226562 154.972656 355.171875 152.6875 355.058594 C 150.402344 354.945312 148.121094 354.777344 145.84375 354.554688 C 143.570312 354.328125 141.300781 354.050781 139.035156 353.714844 C 136.773438 353.378906 134.519531 352.988281 132.277344 352.542969 C 130.035156 352.09375 127.800781 351.59375 125.582031 351.039062 C 123.363281 350.484375 121.160156 349.871094 118.972656 349.207031 C 116.78125 348.542969 114.609375 347.828125 112.457031 347.054688 C 110.304688 346.285156 108.171875 345.464844 106.058594 344.585938 C 103.941406 343.710938 101.851562 342.785156 99.785156 341.808594 C 97.71875 340.828125 95.675781 339.800781 93.65625 338.722656 C 91.640625 337.644531 89.648438 336.515625 87.6875 335.339844 C 85.726562 334.164062 83.792969 332.941406 81.890625 331.671875 C 79.988281 330.398438 78.121094 329.082031 76.28125 327.722656 C 74.445312 326.359375 72.644531 324.953125 70.875 323.5 C 69.105469 322.050781 67.375 320.554688 65.679688 319.019531 C 63.984375 317.484375 62.328125 315.90625 60.710938 314.289062 C 59.09375 312.671875 57.515625 311.015625 55.980469 309.320312 C 54.445312 307.625 52.949219 305.894531 51.5 304.125 C 50.046875 302.355469 48.640625 300.554688 47.277344 298.71875 C 45.917969 296.878906 44.597656 295.011719 43.328125 293.109375 C 42.058594 291.207031 40.835938 289.273438 39.660156 287.3125 C 38.480469 285.351562 37.355469 283.359375 36.277344 281.34375 C 35.199219 279.324219 34.171875 277.28125 33.191406 275.214844 C 32.214844 273.148438 31.289062 271.054688 30.414062 268.941406 C 29.535156 266.828125 28.714844 264.695312 27.941406 262.542969 C 27.171875 260.390625 26.457031 258.21875 25.792969 256.027344 C 25.128906 253.839844 24.515625 251.636719 23.960938 249.417969 C 23.40625 247.199219 22.90625 244.964844 22.457031 242.722656 C 22.011719 240.480469 21.621094 238.226562 21.285156 235.964844 C 20.949219 233.699219 20.671875 231.429688 20.445312 229.15625 C 20.222656 226.878906 20.054688 224.597656 19.941406 222.3125 C 19.828125 220.027344 19.773438 217.742188 19.773438 215.453125 C 19.773438 213.167969 19.828125 210.882812 19.941406 208.597656 C 20.054688 206.3125 20.222656 204.03125 20.445312 201.753906 C 20.671875 199.476562 20.949219 197.207031 21.285156 194.945312 C 21.621094 192.683594 22.011719 190.429688 22.457031 188.1875 C 22.90625 185.941406 23.40625 183.710938 23.960938 181.492188 C 24.515625 179.273438 25.128906 177.070312 25.792969 174.878906 C 26.457031 172.691406 27.171875 170.519531 27.941406 168.367188 C 28.714844 166.210938 29.535156 164.078125 30.414062 161.964844 C 31.289062 159.851562 32.214844 157.761719 33.191406 155.695312 C 34.171875 153.625 35.199219 151.582031 36.277344 149.566406 C 37.355469 147.546875 38.480469 145.558594 39.660156 143.597656 C 40.835938 141.636719 42.058594 139.703125 43.328125 137.800781 C 44.597656 135.898438 45.917969 134.03125 47.277344 132.191406 C 48.640625 130.355469 50.046875 128.550781 51.5 126.785156 C 52.949219 125.015625 54.445312 123.285156 55.980469 121.589844 C 57.515625 119.894531 59.09375 118.238281 60.710938 116.621094 C 62.328125 115.003906 63.984375 113.425781 65.679688 111.890625 C 67.375 110.355469 69.105469 108.859375 70.875 107.410156 C 72.644531 105.957031 74.445312 104.550781 76.28125 103.1875 C 78.121094 101.824219 79.988281 100.507812 81.890625 99.238281 C 83.792969 97.96875 85.726562 96.742188 87.6875 95.566406 C 89.648438 94.390625 91.640625 93.265625 93.65625 92.1875 C 95.675781 91.109375 97.71875 90.078125 99.785156 89.101562 C 101.851562 88.125 103.941406 87.195312 106.058594 86.320312 C 108.171875 85.445312 110.304688 84.621094 112.457031 83.851562 C 114.609375 83.082031 116.78125 82.363281 118.972656 81.699219 C 121.160156 81.035156 123.363281 80.425781 125.582031 79.871094 C 127.800781 79.316406 130.035156 78.8125 132.277344 78.367188 C 134.519531 77.921875 136.773438 77.53125 139.035156 77.195312 C 141.300781 76.859375 143.570312 76.578125 145.84375 76.355469 C 148.121094 76.128906 150.402344 75.960938 152.6875 75.851562 C 154.972656 75.738281 157.257812 75.683594 159.546875 75.683594 C 174.847656 75.628906 189.734375 78.078125 204.210938 83.03125 C 204.84375 83.25 205.496094 83.40625 206.160156 83.496094 C 206.824219 83.589844 207.492188 83.613281 208.164062 83.574219 C 208.832031 83.53125 209.492188 83.425781 210.140625 83.253906 C 210.792969 83.085938 211.417969 82.851562 212.023438 82.558594 C 212.625 82.265625 213.195312 81.914062 213.730469 81.507812 C 214.261719 81.101562 214.753906 80.648438 215.199219 80.144531 C 215.644531 79.640625 216.035156 79.101562 216.375 78.519531 C 216.710938 77.941406 216.992188 77.332031 217.210938 76.699219 C 217.429688 76.066406 217.585938 75.414062 217.675781 74.75 C 217.765625 74.085938 217.792969 73.417969 217.75 72.746094 C 217.710938 72.078125 217.605469 71.417969 217.433594 70.765625 C 217.265625 70.117188 217.03125 69.492188 216.738281 68.886719 C 216.445312 68.285156 216.09375 67.714844 215.6875 67.179688 C 215.28125 66.644531 214.828125 66.15625 214.324219 65.710938 C 213.824219 65.265625 213.28125 64.871094 212.703125 64.535156 C 212.121094 64.195312 211.515625 63.914062 210.882812 63.695312 Z M 210.882812 63.695312 "/></g></svg>